<svg width="50" height="55" viewBox="0 0 50 55" fill="none" xmlns="http://www.w3.org/2000/svg">
<path d="M25.232 42.9252C28.4387 42.9252 30.7573 41.7412 32.188 39.3732C33.6187 37.0052 34.334 33.3299 34.334 28.3472V26.2012C34.334 21.3172 33.594 17.6666 32.114 15.2492C30.634 12.8319 28.2907 11.6232 25.084 11.6232C18.9173 11.6232 15.834 16.4826 15.834 26.2012V28.4212C15.834 33.3546 16.574 37.0052 18.054 39.3732C19.5833 41.7412 21.976 42.9252 25.232 42.9252ZM24.788 54.6912C17.3387 54.6912 11.4433 52.3972 7.102 47.8092C2.81 43.1719 0.664 36.7339 0.664 28.4952V26.2752C0.664 18.1352 2.93333 11.7466 7.472 7.10922C12.0107 2.47189 17.8813 0.153221 25.084 0.153221C32.336 0.153221 38.2067 2.39789 42.696 6.88722C47.2347 11.3272 49.504 17.6912 49.504 25.9792V28.0512C49.504 36.3886 47.284 42.9252 42.844 47.6612C38.404 52.3479 32.3853 54.6912 24.788 54.6912Z" fill="#252B42"/>
</svg>
