<svg width="84" height="55" viewBox="0 0 84 55" fill="none" xmlns="http://www.w3.org/2000/svg">
<path d="M10.932 53.8032V15.8412L0.868 22.0572V9.40322L13.004 0.89322H26.102V53.8032H10.932ZM59.2465 42.9252C62.4531 42.9252 64.7718 41.7412 66.2025 39.3732C67.6331 37.0052 68.3485 33.3299 68.3485 28.3472V26.2012C68.3485 21.3172 67.6085 17.6666 66.1285 15.2492C64.6485 12.8319 62.3051 11.6232 59.0985 11.6232C52.9318 11.6232 49.8485 16.4826 49.8485 26.2012V28.4212C49.8485 33.3546 50.5885 37.0052 52.0685 39.3732C53.5978 41.7412 55.9905 42.9252 59.2465 42.9252ZM58.8025 54.6912C51.3531 54.6912 45.4578 52.3972 41.1165 47.8092C36.8245 43.1719 34.6785 36.7339 34.6785 28.4952V26.2752C34.6785 18.1352 36.9478 11.7466 41.4865 7.10922C46.0251 2.47189 51.8958 0.153221 59.0985 0.153221C66.3505 0.153221 72.2211 2.39789 76.7105 6.88722C81.2491 11.3272 83.5185 17.6912 83.5185 25.9792V28.0512C83.5185 36.3886 81.2985 42.9252 76.8585 47.6612C72.4185 52.3479 66.3998 54.6912 58.8025 54.6912Z" fill="white"/>
</svg>
