<svg width="96" height="55" viewBox="0 0 96 55" fill="none" xmlns="http://www.w3.org/2000/svg">
<path d="M22.328 54.6172C16.112 54.6172 11.2033 53.2606 7.602 50.5472C4.05 47.8339 2.00267 43.9366 1.46 38.8552H15.372C15.964 41.8646 18.036 43.3692 21.588 43.3692C24.6467 43.3692 26.8913 42.2346 28.322 39.9652C29.802 37.6959 30.5913 34.2426 30.69 29.6052C28.0753 33.7492 24.0793 35.8212 18.702 35.8212C13.4233 35.8212 9.10667 34.3412 5.752 31.3812C2.44667 28.3719 0.794 24.1539 0.794 18.7272C0.794 13.1032 2.74267 8.58922 6.64 5.18522C10.5867 1.78122 15.89 0.0792218 22.55 0.0792218C30.1967 0.0792218 35.9687 2.42255 39.866 7.10922C43.7633 11.7466 45.712 18.0366 45.712 25.9792V27.7552C45.712 36.3392 43.6893 42.9746 39.644 47.6612C35.648 52.2986 29.876 54.6172 22.328 54.6172ZM17.148 23.9812C18.4307 25.3626 20.1573 26.0532 22.328 26.0532C24.4987 26.0532 26.25 25.3626 27.582 23.9812C28.914 22.5506 29.58 20.7746 29.58 18.6532C29.58 16.2852 28.914 14.3859 27.582 12.9552C26.2993 11.4752 24.548 10.7352 22.328 10.7352C20.256 10.7352 18.554 11.4752 17.222 12.9552C15.9393 14.3859 15.298 16.2359 15.298 18.5052C15.298 20.7252 15.9147 22.5506 17.148 23.9812ZM71.7409 54.6172C65.5249 54.6172 60.6162 53.2606 57.0149 50.5472C53.4629 47.8339 51.4156 43.9366 50.8729 38.8552H64.7849C65.3769 41.8646 67.4489 43.3692 71.0009 43.3692C74.0596 43.3692 76.3042 42.2346 77.7349 39.9652C79.2149 37.6959 80.0042 34.2426 80.1029 29.6052C77.4882 33.7492 73.4922 35.8212 68.1149 35.8212C62.8362 35.8212 58.5196 34.3412 55.1649 31.3812C51.8596 28.3719 50.2069 24.1539 50.2069 18.7272C50.2069 13.1032 52.1556 8.58922 56.0529 5.18522C59.9996 1.78122 65.3029 0.0792218 71.9629 0.0792218C79.6096 0.0792218 85.3816 2.42255 89.2789 7.10922C93.1762 11.7466 95.1249 18.0366 95.1249 25.9792V27.7552C95.1249 36.3392 93.1022 42.9746 89.0569 47.6612C85.0609 52.2986 79.2889 54.6172 71.7409 54.6172ZM66.5609 23.9812C67.8436 25.3626 69.5702 26.0532 71.7409 26.0532C73.9116 26.0532 75.6629 25.3626 76.9949 23.9812C78.3269 22.5506 78.9929 20.7746 78.9929 18.6532C78.9929 16.2852 78.3269 14.3859 76.9949 12.9552C75.7122 11.4752 73.9609 10.7352 71.7409 10.7352C69.6689 10.7352 67.9669 11.4752 66.6349 12.9552C65.3522 14.3859 64.7109 16.2359 64.7109 18.5052C64.7109 20.7252 65.3276 22.5506 66.5609 23.9812Z" fill="#252B42"/>
</svg>
