<svg width="13" height="20" viewBox="0 0 13 20" fill="none" xmlns="http://www.w3.org/2000/svg">
<path d="M5.76 19.0032V16.5032C4.08 16.3832 2.79333 15.9099 1.9 15.0832C1.02 14.2432 0.546667 13.1432 0.48 11.7832H4.18C4.3 12.8366 4.82667 13.4632 5.76 13.6632V10.7432C4 10.4899 2.73333 10.0166 1.96 9.32322C1.18667 8.61656 0.8 7.57656 0.8 6.20322C0.8 4.98989 1.24667 3.98322 2.14 3.18322C3.03333 2.38322 4.24 1.92989 5.76 1.82322V0.0432222H7.32V1.84322C10.3333 2.09655 11.9533 3.53656 12.18 6.16322H8.56C8.42667 5.34989 8.01333 4.84989 7.32 4.66322V7.42322C8.98667 7.66322 10.2467 8.10989 11.1 8.76322C11.9533 9.41656 12.38 10.4299 12.38 11.8032C12.38 13.0966 11.9533 14.1766 11.1 15.0432C10.2467 15.9099 8.98667 16.3966 7.32 16.5032V19.0032H5.76ZM8.66 12.2432C8.66 11.8966 8.56667 11.6366 8.38 11.4632C8.19333 11.2766 7.84 11.1232 7.32 11.0032V13.6632C8.21333 13.4766 8.66 13.0032 8.66 12.2432ZM4.4 5.90322C4.4 6.26322 4.49333 6.54322 4.68 6.74322C4.88 6.92989 5.24 7.07656 5.76 7.18322V4.62322C4.85333 4.78322 4.4 5.20989 4.4 5.90322Z" fill="#252B42"/>
</svg>
